<svg version="1.1" preserveAspectRatio="none" xmlns="http://www.w3.org/2000/svg" width="500" height="500" viewBox="0 0 500 500"><rect width="100%" height="100%" fill="#1C1C1C" fill-opacity="1"/><svg viewBox="123.2901 170.066 383.8656 281.134" width="333" height="243.8812490621718" x="83.5px" y="128.0594px" xmlns="http://www.w3.org/2000/svg" xmlns:xlink="http://www.w3.org/1999/xlink" preserveAspectRatio="none"><defs></defs><style>.companyName {fill:#EDEDED;fill-opacity:1;}.icon1 {fill:#EDEDED;fill-opacity:1;}.icon2 {fill:#F35F40;fill-opacity:1;}.icon3 {fill:#B2B2B1;fill-opacity:1;}.icon3-str {stroke:#B2B2B1;stroke-opacity:1;}</style><g opacity="1" transform="rotate(0 219.2565 170.066)">
<svg width="191.9328" height="181.134" x="219.2565" y="170.066" version="1.1" preserveAspectRatio="none" viewBox="19.974998474121094 24.57398796081543 160.02975463867188 151.02603149414062">
  <g transform="matrix(1 0 0 1 0 0)" ><g><path d="M179.8 128.7l-25.6-33.9 16.2-24.3c.4-.2.6-.7.6-1.3.1-.3 0-.6-.1-.9-.2-.4-.7-.7-1.2-.7h-36L101.4 25c-.3-.3-.7-.5-1.2-.4-.4 0-.9.1-1.2.4L66.5 67.6H30.4c-.5 0-1 .3-1.2.7-.2.4-.2.6-.2.9 0 .5.2 1 .6 1.3l16.2 24.4-25.6 33.8c-.3.5-.3 1.2 0 1.7.4.5 1.1.6 1.6.4l37.8-15.3L98 173.1v1.1c0 .6.4 1.2 1 1.3.1 0 .3.1.4.1.2 0 .3-.1.5-.1.2.1.3.1.5.1.1 0 .3 0 .4-.1.5-.2 1-.7 1-1.3v-1.1l38.4-57.6 37.8 15.3c.5.2 1.3.1 1.6-.4.5-.5.5-1.2.2-1.7zm-78.2-58.3l30.8.1 7.2 9.6-37.8 15.4-.2-25.1zm34.1.2l26.9.1-20.4 8.3-6.5-8.4zm30 1.8l-13.4 20-8.4-11.2 21.8-8.8zm-35.6-4.8h-28.5l-.1-21.4.1-16.4 28.5 37.8zm-65.7 3L58 79.1l-20.5-8.3 26.9-.2zm3.4 0l30.8-.1-.1 25-38-15.4 7.3-9.5zm30.9-40.8v17l-.1 20.7H70l28.7-37.7zM34.3 72.4l21.9 8.8-8.5 11.3-13.4-20.1zm-8.8 53.9l22.1-29.2L58.2 113l-32.7 13.3zM49.3 95l9.5-12.6 37.5 15.2-35.6 14.5L49.3 95zm13 19.4l36.1-14.7-.3 68.3-35.8-53.6zm39.6 53.7l-.2-68.3 36 14.6-35.8 53.7zm37.4-56l-35.6-14.5 37.5-15.2 9.5 12.6-11.4 17.1zm2.5 1.1l10.6-15.9 22 29.2-32.6-13.3z" data-color="1" class="icon1"></path></g></g>
</svg>
</g><g opacity="1" transform="rotate(0 123.2901 391.2)">
<svg width="383.8656" height="60" x="123.2901" y="391.2" version="1.1" preserveAspectRatio="none" viewBox="1.24 -34.68 223.92 35">
  <g transform="matrix(1 0 0 1 0 0)" class="companyName"><path id="id-D6z1nYkh11" d="M9.52 0.32Q5.76 0.32 3.50-2.04Q1.24-4.40 1.24-8.52L1.24-8.52L1.24-24.36Q1.24-29.48 3.28-32.08Q5.32-34.68 9.68-34.68L9.68-34.68Q13.48-34.68 15.80-32.60Q18.12-30.52 18.12-26.60L18.12-26.60L18.12-20.68L11.28-20.68L11.28-25.76Q11.28-27.24 10.92-27.80Q10.56-28.36 9.68-28.36L9.68-28.36Q8.76-28.36 8.42-27.72Q8.08-27.08 8.08-25.84L8.08-25.84L8.08-8.60Q8.08-7.24 8.48-6.62Q8.88-6 9.68-6L9.68-6Q11.28-6 11.28-8.60L11.28-8.60L11.28-14.80L18.20-14.80L18.20-8.32Q18.20 0.32 9.52 0.32L9.52 0.32Z M31.48 0.32Q27.32 0.32 25.16-2.22Q23-4.76 23-9.36L23-9.36L23-25.72Q23-30.16 25.16-32.42Q27.32-34.68 31.48-34.68L31.48-34.68Q35.64-34.68 37.80-32.42Q39.96-30.16 39.96-25.72L39.96-25.72L39.96-9.36Q39.96-4.72 37.80-2.20Q35.64 0.32 31.48 0.32L31.48 0.32ZM31.48-6Q32.40-6 32.72-6.80Q33.04-7.60 33.04-9.04L33.04-9.04L33.04-25.84Q33.04-26.96 32.74-27.66Q32.44-28.36 31.52-28.36L31.52-28.36Q29.80-28.36 29.80-25.76L29.80-25.76L29.80-9Q29.80-7.52 30.16-6.76Q30.52-6 31.48-6L31.48-6Z M53.68 0.32Q49 0.32 46.92-2Q44.84-4.32 44.84-9.48L44.84-9.48L44.84-12.84L51.60-12.84L51.60-8.56Q51.60-6 53.24-6L53.24-6Q54.16-6 54.52-6.54Q54.88-7.08 54.88-8.36L54.88-8.36Q54.88-10.04 54.48-11.14Q54.08-12.24 53.46-12.98Q52.84-13.72 51.24-15.28L51.24-15.28L48.28-18.24Q44.84-21.60 44.84-25.68L44.84-25.68Q44.84-30.08 46.86-32.38Q48.88-34.68 52.76-34.68L52.76-34.68Q57.40-34.68 59.44-32.22Q61.48-29.76 61.48-24.52L61.48-24.52L54.48-24.52L54.44-26.88Q54.44-27.56 54.06-27.96Q53.68-28.36 53-28.36L53-28.36Q52.20-28.36 51.80-27.92Q51.40-27.48 51.40-26.72L51.40-26.72Q51.40-25.04 53.32-23.24L53.32-23.24L57.32-19.40Q58.72-18.04 59.64-16.82Q60.56-15.60 61.12-13.94Q61.68-12.28 61.68-10L61.68-10Q61.68-4.92 59.82-2.30Q57.96 0.32 53.68 0.32L53.68 0.32Z M72.52 0L65.84 0L69.16-34.36L80.80-34.36L84.08 0L77.56 0L77.08-5.56L72.92-5.56L72.52 0ZM74.72-28.52L73.44-11.04L76.56-11.04L75.04-28.52L74.72-28.52Z M107.84 0L101.12 0L101.12-34.36L108.20-34.36L111.36-17.92L111.36-34.36L118-34.36L118 0L111.28 0L107.84-17.20L107.84 0Z M132.04 0.32Q127.88 0.32 125.72-2.22Q123.56-4.76 123.56-9.36L123.56-9.36L123.56-25.72Q123.56-30.16 125.72-32.42Q127.88-34.68 132.04-34.68L132.04-34.68Q136.20-34.68 138.36-32.42Q140.52-30.16 140.52-25.72L140.52-25.72L140.52-9.36Q140.52-4.72 138.36-2.20Q136.20 0.32 132.04 0.32L132.04 0.32ZM132.04-6Q132.96-6 133.28-6.80Q133.60-7.60 133.60-9.04L133.60-9.04L133.60-25.84Q133.60-26.96 133.30-27.66Q133-28.36 132.08-28.36L132.08-28.36Q130.36-28.36 130.36-25.76L130.36-25.76L130.36-9Q130.36-7.52 130.72-6.76Q131.08-6 132.04-6L132.04-6Z M154.24 0.32Q149.56 0.32 147.48-2Q145.40-4.32 145.40-9.48L145.40-9.48L145.40-12.84L152.16-12.84L152.16-8.56Q152.16-6 153.80-6L153.80-6Q154.72-6 155.08-6.54Q155.44-7.08 155.44-8.36L155.44-8.36Q155.44-10.04 155.04-11.14Q154.64-12.24 154.02-12.98Q153.40-13.72 151.80-15.28L151.80-15.28L148.84-18.24Q145.40-21.60 145.40-25.68L145.40-25.68Q145.40-30.08 147.42-32.38Q149.44-34.68 153.32-34.68L153.32-34.68Q157.96-34.68 160-32.22Q162.04-29.76 162.04-24.52L162.04-24.52L155.04-24.52L155-26.88Q155-27.56 154.62-27.96Q154.24-28.36 153.56-28.36L153.56-28.36Q152.76-28.36 152.36-27.92Q151.96-27.48 151.96-26.72L151.96-26.72Q151.96-25.04 153.88-23.24L153.88-23.24L157.88-19.40Q159.28-18.04 160.20-16.82Q161.12-15.60 161.68-13.94Q162.24-12.28 162.24-10L162.24-10Q162.24-4.92 160.38-2.30Q158.52 0.32 154.24 0.32L154.24 0.32Z M177.16 0L170.28 0L170.28-27.76L166.20-27.76L166.20-34.36L181.24-34.36L181.24-27.76L177.16-27.76L177.16 0Z M185.96 0L185.96-34.36L196.52-34.36Q199.04-34.36 200.42-33.22Q201.80-32.08 202.28-30.02Q202.76-27.96 202.76-24.76L202.76-24.76Q202.76-21.84 202.00-20.20Q201.24-18.56 199.36-17.92L199.36-17.92Q200.92-17.60 201.62-16.36Q202.32-15.12 202.32-13L202.32-13L202.24 0L195.52 0L195.52-13.44Q195.52-14.88 194.96-15.28Q194.40-15.68 192.92-15.68L192.92-15.68L192.92 0L185.96 0ZM192.96-21.64L194.60-21.64Q196.04-21.64 196.04-24.76L196.04-24.76Q196.04-26.12 195.92-26.80Q195.80-27.48 195.48-27.74Q195.16-28 194.56-28L194.56-28L192.96-28L192.96-21.64Z M213.60 0L206.92 0L210.24-34.36L221.88-34.36L225.16 0L218.64 0L218.16-5.56L214.00-5.56L213.60 0ZM215.80-28.52L214.52-11.04L217.64-11.04L216.12-28.52L215.80-28.52Z"/></g>
</svg>
</g></svg></svg>